#!OML:ASF X:\für Bonn\!DataBase\2005_08_10_Bjorn_Final\c3d\bjorn.ASF
:FULLY-SPECIFIED
:DEGREES
651
root -0.388142 1.27899 23.8641 -469.92 -178.45 367.832
lowerback 24.1588 1.12789 0.764771
upperback 7.86696 0.0866914 -4.01456
thorax -4.7567 -0.551588 -4.78113
lowerneck -18.2214 -7.20243 -4.93512
upperneck 0.466596 -9.71018 8.71458
head 3.68797 -4.64755 2.61961
rclavicle 1.27222e-014 -7.95139e-015
rhumerus -217.302 -186.261 105.724
rradius 24.261
rwrist 19.962
rhand -10.0977 9.93906
rfingers 7.12502
rthumb 15.8896 -19.429
lclavicle 1.27222e-014 -7.95139e-015
lhumerus -398.299 -43.9222 -277.596
lradius 17.1513
lwrist -26.2795
lhand -12.9671 -10.0195
lfingers 7.12502
lthumb 13.1249 19.5474
rfemur -26.0833 -15.9571 -11.9345
rtibia 109.539
rfoot 36.3926 13.7303
rtoes -1.96997
lfemur -37.2035 -4.04192 -0.488426
ltibia 119.686
lfoot 30.2405 -9.3195
ltoes 4.50352
652
root -0.386415 1.28016 23.8644 -469.914 -178.441 367.808
lowerback 24.1622 1.13016 0.736807
upperback 7.85182 0.0861759 -4.00177
thorax -4.7756 -0.551121 -4.75094
lowerneck -18.2482 -7.21024 -4.95665
upperneck 0.498592 -9.71214 8.69293
head 3.70157 -4.64732 2.61483
rclavicle 1.59028e-015 1.03368e-014
rhumerus -217.175 -185.511 105.881
rradius 22.878
rwrist 21.0226
rhand -10.2821 10.0703
rfingers 7.12502
rthumb 15.712 -19.3119
lclavicle 1.59028e-015 1.03368e-014
lhumerus -398.902 -44.2299 -277.101
lradius 16.8752
lwrist -26.8919
lhand -12.5634 -9.87509
lfingers 7.12502
lthumb 13.514 19.6664
rfemur -26.0906 -15.9845 -11.9607
rtibia 109.54
rfoot 36.4002 13.7196
rtoes -1.95876
lfemur -37.1804 -4.05071 -0.503293
ltibia 119.681
lfoot 30.2328 -9.36
ltoes 4.46602
653
root -0.38491 1.28061 23.8629 -469.905 -178.446 367.801
lowerback 24.1687 1.12499 0.760563
upperback 7.83182 0.0851073 -4.01985
thorax -4.80036 -0.550756 -4.78467
lowerneck -18.2131 -7.21623 -4.9231
upperneck 0.493769 -9.72882 8.68479
head 3.6939 -4.65703 2.60658
rclavicle 1.59028e-015 -5.1684e-015
rhumerus -217.066 -184.553 106.08
rradius 21.4845
rwrist 22.1831
rhand -10.5342 10.1448
rfingers 7.12502
rthumb 15.4691 -19.2563
lclavicle 1.59028e-015 -5.1684e-015
lhumerus -399.386 -44.504 -276.743
lradius 16.6232
lwrist -27.4611
lhand -11.904 -9.71864
lfingers 7.12502
lthumb 14.1495 19.7795
rfemur -26.0933 -16.0414 -11.9933
rtibia 109.552
rfoot 36.4134 13.6975
rtoes -1.8366
lfemur -37.1906 -4.07424 -0.491388
ltibia 119.685
lfoot 30.2408 -9.29358
ltoes 4.6276
654
root -0.38399 1.28142 23.8632 -469.892 -178.437 367.778
lowerback 24.1795 1.12255 0.737927
upperback 7.79278 0.0825157 -4.00817
thorax -4.84929 -0.549925 -4.75864
lowerneck -18.1464 -7.22032 -5.01019
upperneck 0.507503 -9.71914 8.73693
head 3.69475 -4.65011 2.63847
rclavicle 3.02153e-014 -7.73272e-014
rhumerus -216.969 -183.559 106.41
rradius 20.1116
rwrist 23.4969
rhand -10.7711 10.2206
rfingers 7.12502
rthumb 15.241 -19.198
lclavicle 3.02153e-014 -7.73272e-014
lhumerus -399.943 -44.7931 -276.251
lradius 16.4146
lwrist -27.8675
lhand -11.1378 -9.51042
lfingers 7.12502
lthumb 14.8878 19.9346
rfemur -26.1138 -16.0649 -12.0155
rtibia 109.554
rfoot 36.4264 13.68
rtoes -1.77017
lfemur -37.1742 -4.09337 -0.510735
ltibia 119.672
lfoot 30.2301 -9.27254
ltoes 4.62043
655
root -0.381598 1.28204 23.8628 -469.876 -178.465 367.781
lowerback 24.1645 1.10436 0.759406
upperback 7.78268 0.0673625 -4.00559
thorax -4.85402 -0.555706 -4.76394
lowerneck -18.1226 -7.22161 -5.00597
upperneck 0.476897 -9.72159 8.73242
head 3.68141 -4.65301 2.63746
rclavicle 6.99722e-014 -2.76311e-014
rhumerus -216.829 -182.409 106.807
rradius 18.7547
rwrist 25.0062
rhand -10.9863 10.2587
rfingers 7.12502
rthumb 15.0337 -19.1755
lclavicle 6.99722e-014 -2.76311e-014
lhumerus -400.325 -44.9994 -275.954
lradius 16.2206
lwrist -28.4273
lhand -10.3071 -9.42924
lfingers 7.12502
lthumb 15.6879 19.9548
rfemur -26.1078 -16.1347 -12.0167
rtibia 109.562
rfoot 36.4308 13.6427
rtoes -1.60608
lfemur -37.1964 -4.11684 -0.475339
ltibia 119.675
lfoot 30.2151 -9.33463
ltoes 4.43778
656
root -0.380584 1.28291 23.8627 -469.874 -178.455 367.775
lowerback 24.1688 1.09634 0.748649
upperback 7.76653 0.0566175 -4.00681
thorax -4.875 -0.559976 -4.75635
lowerneck -18.1084 -7.23066 -5.05125
upperneck 0.49587 -9.72535 8.75365
head 3.68873 -4.65331 2.65056
rclavicle -2.22639e-014 3.37934e-014
rhumerus -216.701 -180.903 107.448
rradius 17.3872
rwrist 26.9932
rhand -11.1491 10.3495
rfingers 7.12502
rthumb 14.8769 -19.0963
lclavicle -2.22639e-014 3.37934e-014
lhumerus -400.04 -44.4871 -276.267
lradius 15.6293
lwrist -29.811
lhand -9.62954 -9.54077
lfingers 7.12502
lthumb 16.3404 19.7908
rfemur -26.104 -16.1803 -12.0641
rtibia 109.563
rfoot 36.4582 13.6419
rtoes -1.57173
lfemur -37.183 -4.15802 -0.501292
ltibia 119.67
lfoot 30.2153 -9.3076
ltoes 4.50863
657
root -0.378917 1.28388 23.8618 -469.854 -178.457 367.763
lowerback 24.154 1.08936 0.7823
upperback 7.75659 0.0536685 -4.03968
thorax -4.87812 -0.560777 -4.81111
lowerneck -18.0927 -7.2305 -5.02775
upperneck 0.47517 -9.73573 8.7833
head 3.68149 -4.65901 2.65567
rclavicle 3.97569e-014 -2.84262e-014
rhumerus -216.558 -178.881 108.337
rradius 16.0095
rwrist 29.6495
rhand -11.2306 10.3715
rfingers 7.12502
rthumb 14.7983 -19.0801
lclavicle 3.97569e-014 -2.84262e-014
lhumerus -399.716 -44.0602 -276.639
lradius 15.0741
lwrist -31.0918
lhand -9.07425 -9.61443
lfingers 7.12502
lthumb 16.875 19.6724
rfemur -26.116 -16.2159 -12.0779
rtibia 109.571
rfoot 36.4638 13.6012
rtoes -1.44134
lfemur -37.1949 -4.15588 -0.490753
ltibia 119.676
lfoot 30.2065 -9.36633
ltoes 4.40624
658
root -0.377483 1.28401 23.8625 -469.854 -178.457 367.763
lowerback 24.1683 1.07538 0.781969
upperback 7.73738 0.0373641 -4.04368
thorax -4.90783 -0.567736 -4.8113
lowerneck -18.0716 -7.23284 -5.05722
upperneck 0.491833 -9.73368 8.79817
head 3.68561 -4.65694 2.66523
rclavicle 1.27222e-014 -3.16068e-014
rhumerus -216.472 -176.383 109.619
rradius 14.6752
rwrist 33.0823
rhand -11.2631 10.4014
rfingers 7.12502
rthumb 14.767 -19.0525
lclavicle 1.27222e-014 -3.16068e-014
lhumerus -399.458 -43.6116 -276.947
lradius 14.5695
lwrist -32.3455
lhand -8.70388 -9.74985
lfingers 7.12502
lthumb 17.2315 19.5062
rfemur -26.1071 -16.2662 -12.11
rtibia 109.569
rfoot 36.4979 13.5661
rtoes -1.34977
lfemur -37.196 -4.2067 -0.508561
ltibia 119.668
lfoot 30.2166 -9.28999
ltoes 4.51928
659
root -0.375799 1.2848 23.8614 -469.852 -178.463 367.76
lowerback 24.1714 1.06261 0.773024
upperback 7.72168 0.0222596 -4.03564
thorax -4.92819 -0.573845 -4.79332
lowerneck -18.0585 -7.22675 -5.0664
upperneck 0.506578 -9.72072 8.78071
head 3.68669 -4.65044 2.66279
rclavicle 3.18055e-014 -3.08116e-014
rhumerus -216.443 -173.365 111.311
rradius 13.3384
rwrist 37.2668
rhand -11.2405 10.463
rfingers 7.12502
rthumb 14.7888 -18.9894
lclavicle 3.18055e-014 -3.08116e-014
lhumerus -399.107 -43.0216 -277.345
lradius 14.076
lwrist -33.6391
lhand -8.51216 -9.84522
lfingers 7.12502
lthumb 17.416 19.3946
rfemur -26.0926 -16.31 -12.145
rtibia 109.573
rfoot 36.5294 13.4858
rtoes -1.03361
lfemur -37.1963 -4.22155 -0.500584
ltibia 119.672
lfoot 30.204 -9.34932
ltoes 4.41208
660
root -0.375239 1.28529 23.8615 -469.84 -178.456 367.744
lowerback 24.1684 1.05135 0.793056
upperback 7.7003 0.0128877 -4.05859
thorax -4.95066 -0.57721 -4.82784
lowerneck -17.9836 -7.23336 -5.09679
upperneck 0.45765 -9.73051 8.83877
head 3.666 -4.65634 2.68712
rclavicle -7.95139e-015 2.00773e-014
rhumerus -216.625 -169.732 113.438
rradius 12.0709
rwrist 42.3692
rhand -11.2273 10.4596
rfingers 7.12502
rthumb 14.8015 -18.9919
lclavicle -7.95139e-015 2.00773e-014
lhumerus -398.888 -42.66 -277.621
lradius 13.6423
lwrist -34.6052
lhand -8.54799 -9.9421
lfingers 7.12502
lthumb 17.3815 19.3007
rfemur -26.1078 -16.3389 -12.1703
rtibia 109.574
rfoot 36.5432 13.4694
rtoes -1.05711
lfemur -37.1834 -4.24486 -0.52007
ltibia 119.66
lfoot 30.1743 -9.34647
ltoes 4.38391
661
root -0.373878 1.28595 23.8606 -469.831 -178.458 367.73
lowerback 24.161 1.04824 0.813722
upperback 7.69124 0.0131971 -4.07546
thorax -4.95648 -0.576553 -4.85849
lowerneck -17.9897 -7.23507 -5.06834
upperneck 0.474682 -9.73959 8.83106
head 3.67103 -4.66076 2.67897
rclavicle -2.54444e-014 1.07344e-014
rhumerus -217.145 -165.047 116.385
rradius 10.8503
rwrist 48.8634
rhand -11.1603 10.4976
rfingers 7.12502
rthumb 14.8661 -18.949
lclavicle -2.54444e-014 1.07344e-014
lhumerus -398.656 -42.3117 -277.917
lradius 13.267
lwrist -35.4743
lhand -8.82597 -10.056
lfingers 7.12502
lthumb 17.114 19.2102
rfemur -26.1128 -16.3867 -12.1991
rtibia 109.582
rfoot 36.5575 13.4442
rtoes -0.93317
lfemur -37.1904 -4.23668 -0.508892
ltibia 119.666
lfoot 30.1551 -9.40694
ltoes 4.21798
662
root -0.372346 1.28638 23.8603 -469.819 -178.458 367.73
lowerback 24.1597 1.03456 0.803041
upperback 7.66917 -0.00310565 -4.07354
thorax -4.98177 -0.582841 -4.84593
lowerneck -17.9454 -7.23728 -5.12283
upperneck 0.476755 -9.73477 8.87416
head 3.66988 -4.65709 2.70217
rclavicle -1.90833e-014 -1.92821e-014
rhumerus -216.887 -164.693 116.053
rradius 9.59882
rwrist 50.3369
rhand -11.2901 9.4364
rfingers 7.12502
rthumb 14.741 -20.0195
lclavicle -1.90833e-014 -1.92821e-014
lhumerus -398.414 -41.7827 -278.267
lradius 12.9667
lwrist -36.4225
lhand -9.2494 -10.0997
lfingers 7.12502
lthumb 16.7063 19.2014
rfemur -26.1159 -16.4349 -12.2272
rtibia 109.586
rfoot 36.5788 13.4301
rtoes -0.769794
lfemur -37.1928 -4.28453 -0.520709
ltibia 119.663
lfoot 30.1806 -9.32331
ltoes 4.49728
663
root -0.371431 1.28692 23.8603 -469.82 -178.461 367.72
lowerback 24.1435 1.02693 0.832426
upperback 7.68004 -0.00909405 -4.09644
thorax -4.96178 -0.586105 -4.88615
lowerneck -17.9652 -7.23724 -5.07335
upperneck 0.475613 -9.74516 8.85469
head 3.66973 -4.66325 2.68701
rclavicle 4.6118e-014 -9.80008e-014
rhumerus -216.637 -164.318 115.745
rradius 8.41754
rwrist 51.8392
rhand -11.3271 8.42509
rfingers 7.12502
rthumb 14.7054 -21.0334
lclavicle 4.6118e-014 -9.80008e-014
lhumerus -398.14 -41.3945 -278.644
lradius 12.6986
lwrist -37.2682
lhand -9.81448 -10.1325
lfingers 7.12502
lthumb 16.1623 19.2137
rfemur -26.1018 -16.4653 -12.2486
rtibia 109.585
rfoot 36.5759 13.3912
rtoes -0.70256
lfemur -37.1813 -4.29391 -0.521116
ltibia 119.663
lfoot 30.1568 -9.37295
ltoes 4.33503
664
root -0.370183 1.28784 23.8596 -469.795 -178.459 367.717
lowerback 24.1268 1.01606 0.844969
upperback 7.64777 -0.0176169 -4.12074
thorax -4.98941 -0.588095 -4.91798
lowerneck -17.8824 -7.2304 -5.04274
upperneck 0.450227 -9.74673 8.86884
head 3.64914 -4.66618 2.68926
rclavicle -7.95139e-015 7.35503e-015
rhumerus -216.404 -163.971 115.445
rradius 7.19402
rwrist 53.4307
rhand -11.3376 7.41791
rfingers 7.12502
rthumb 14.6953 -22.0413
lclavicle -7.95139e-015 7.35503e-015
lhumerus -397.967 -40.9766 -278.989
lradius 12.5497
lwrist -38.0123
lhand -10.3528 -10.1336
lfingers 7.12502
lthumb 15.6439 19.2539
rfemur -26.1269 -16.5317 -12.2852
rtibia 109.596
rfoot 36.6051 13.3893
rtoes -0.578377
lfemur -37.2079 -4.30295 -0.517122
ltibia 119.667
lfoot 30.1572 -9.36891
ltoes 4.34692
